<svg width="149" height="133" viewBox="0 0 149 133" fill="none" xmlns="http://www.w3.org/2000/svg">
<g clip-path="url(#clip0_4328_14451)">
<path d="M120.315 36.2277H62.9492L117.612 93.7621L124.882 41.9424C125.544 39.0138 123.318 36.2277 120.315 36.2277Z" fill="#00AD94"/>
<path d="M102.892 7.23694H48.7905C45.4588 7.23694 42.7578 9.93788 42.7578 13.2697V83.9955H108.925V13.2697C108.925 9.93768 106.224 7.23694 102.892 7.23694Z" fill="#EFEDEE"/>
<path d="M108.926 34.7765H50.2227V61.3371H108.926V34.7765Z" fill="#D4D2D3"/>
<path d="M107.183 47.6397C106.463 44.4525 103.631 42.1895 100.363 42.1895H55.3608L54.4483 38.1536C54.0019 36.1788 52.247 34.7765 50.2223 34.7765H28.3345C25.556 34.7765 23.4958 37.3545 24.1085 40.0643L35.0858 88.616C35.7662 91.6254 38.4401 93.7622 41.5253 93.7622H117.612L107.183 47.6397Z" fill="#3AC7B4"/>
<path d="M62.5114 24.0514C61.6694 24.0514 60.9873 23.3691 60.9873 22.5273V20.115C60.9873 19.2733 61.6694 18.5909 62.5114 18.5909C63.3533 18.5909 64.0354 19.2733 64.0354 20.115V22.5273C64.0356 23.3691 63.3531 24.0514 62.5114 24.0514Z" fill="#3A484A"/>
<path d="M89.1705 24.0508C88.3286 24.0508 87.6465 23.3685 87.6465 22.5267V20.1144C87.6465 19.2727 88.3286 18.5903 89.1705 18.5903C90.0125 18.5903 90.6946 19.2727 90.6946 20.1144V22.5267C90.6946 23.3685 90.0125 24.0508 89.1705 24.0508Z" fill="#3A484A"/>
<path d="M75.841 25.8338C73.8257 25.8338 71.9339 24.9921 70.6511 23.5245C70.097 22.8906 70.1617 21.9278 70.7955 21.3739C71.4289 20.82 72.392 20.8845 72.9459 21.5183C73.6501 22.3237 74.7049 22.7855 75.8408 22.7855C76.9764 22.7855 78.0312 22.3235 78.7354 21.5183C79.2891 20.8845 80.2522 20.8198 80.886 21.3741C81.5196 21.928 81.5845 22.8908 81.0302 23.5246C79.7476 24.9921 77.856 25.8338 75.841 25.8338Z" fill="#3A484A"/>
</g>
<defs>
<clipPath id="clip0_4328_14451">
<rect width="100.999" height="100.999" fill="white" transform="translate(24)"/>
</clipPath>
</defs>
</svg>
