<svg width="149" height="133" viewBox="0 0 149 133" fill="none" xmlns="http://www.w3.org/2000/svg">
<path d="M10.9919 127H8.75194L3.67994 119.336V127H1.43994V115.816H3.67994L8.75194 123.496V115.816H10.9919V127ZM17.1416 127.144C16.2882 127.144 15.5202 126.957 14.8376 126.584C14.1549 126.2 13.6162 125.661 13.2216 124.968C12.8376 124.275 12.6456 123.475 12.6456 122.568C12.6456 121.661 12.8429 120.861 13.2376 120.168C13.6429 119.475 14.1922 118.941 14.8856 118.568C15.5789 118.184 16.3522 117.992 17.2056 117.992C18.0589 117.992 18.8322 118.184 19.5256 118.568C20.2189 118.941 20.7629 119.475 21.1576 120.168C21.5629 120.861 21.7656 121.661 21.7656 122.568C21.7656 123.475 21.5576 124.275 21.1416 124.968C20.7362 125.661 20.1816 126.2 19.4776 126.584C18.7842 126.957 18.0056 127.144 17.1416 127.144ZM17.1416 125.192C17.5469 125.192 17.9256 125.096 18.2776 124.904C18.6402 124.701 18.9282 124.403 19.1416 124.008C19.3549 123.613 19.4616 123.133 19.4616 122.568C19.4616 121.725 19.2376 121.08 18.7896 120.632C18.3522 120.173 17.8136 119.944 17.1736 119.944C16.5336 119.944 15.9949 120.173 15.5576 120.632C15.1309 121.08 14.9176 121.725 14.9176 122.568C14.9176 123.411 15.1256 124.061 15.5416 124.52C15.9682 124.968 16.5016 125.192 17.1416 125.192ZM26.6452 122.536C26.6452 121.64 26.8212 120.845 27.1732 120.152C27.5359 119.459 28.0265 118.925 28.6452 118.552C29.2639 118.179 29.9519 117.992 30.7092 117.992C31.2852 117.992 31.8345 118.12 32.3572 118.376C32.8799 118.621 33.2959 118.952 33.6052 119.368V115.16H35.8772V127H33.6052V125.688C33.3279 126.125 32.9385 126.477 32.4372 126.744C31.9359 127.011 31.3545 127.144 30.6932 127.144C29.9465 127.144 29.2639 126.952 28.6452 126.568C28.0265 126.184 27.5359 125.645 27.1732 124.952C26.8212 124.248 26.6452 123.443 26.6452 122.536ZM33.6212 122.568C33.6212 122.024 33.5145 121.56 33.3012 121.176C33.0879 120.781 32.7999 120.483 32.4372 120.28C32.0745 120.067 31.6852 119.96 31.2692 119.96C30.8532 119.96 30.4692 120.061 30.1172 120.264C29.7652 120.467 29.4772 120.765 29.2532 121.16C29.0399 121.544 28.9332 122.003 28.9332 122.536C28.9332 123.069 29.0399 123.539 29.2532 123.944C29.4772 124.339 29.7652 124.643 30.1172 124.856C30.4799 125.069 30.8639 125.176 31.2692 125.176C31.6852 125.176 32.0745 125.075 32.4372 124.872C32.7999 124.659 33.0879 124.36 33.3012 123.976C33.5145 123.581 33.6212 123.112 33.6212 122.568ZM37.4889 122.536C37.4889 121.64 37.6649 120.845 38.0169 120.152C38.3796 119.459 38.8649 118.925 39.4729 118.552C40.0916 118.179 40.7796 117.992 41.5369 117.992C42.1983 117.992 42.7743 118.125 43.2649 118.392C43.7663 118.659 44.1663 118.995 44.4649 119.4V118.136H46.7209V127H44.4649V125.704C44.1769 126.12 43.7769 126.467 43.2649 126.744C42.7636 127.011 42.1823 127.144 41.5209 127.144C40.7743 127.144 40.0916 126.952 39.4729 126.568C38.8649 126.184 38.3796 125.645 38.0169 124.952C37.6649 124.248 37.4889 123.443 37.4889 122.536ZM44.4649 122.568C44.4649 122.024 44.3583 121.56 44.1449 121.176C43.9316 120.781 43.6436 120.483 43.2809 120.28C42.9183 120.067 42.5289 119.96 42.1129 119.96C41.6969 119.96 41.3129 120.061 40.9609 120.264C40.6089 120.467 40.3209 120.765 40.0969 121.16C39.8836 121.544 39.7769 122.003 39.7769 122.536C39.7769 123.069 39.8836 123.539 40.0969 123.944C40.3209 124.339 40.6089 124.643 40.9609 124.856C41.3236 125.069 41.7076 125.176 42.1129 125.176C42.5289 125.176 42.9183 125.075 43.2809 124.872C43.6436 124.659 43.9316 124.36 44.1449 123.976C44.3583 123.581 44.4649 123.112 44.4649 122.568ZM51.5167 119.976V124.264C51.5167 124.563 51.586 124.781 51.7247 124.92C51.874 125.048 52.1194 125.112 52.4607 125.112H53.5007V127H52.0927C50.2047 127 49.2607 126.083 49.2607 124.248V119.976H48.2047V118.136H49.2607V115.944H51.5167V118.136H53.5007V119.976H51.5167ZM54.5358 122.536C54.5358 121.64 54.7118 120.845 55.0638 120.152C55.4265 119.459 55.9118 118.925 56.5198 118.552C57.1385 118.179 57.8265 117.992 58.5838 117.992C59.2451 117.992 59.8211 118.125 60.3118 118.392C60.8131 118.659 61.2131 118.995 61.5118 119.4V118.136H63.7678V127H61.5118V125.704C61.2238 126.12 60.8238 126.467 60.3118 126.744C59.8105 127.011 59.2291 127.144 58.5678 127.144C57.8211 127.144 57.1385 126.952 56.5198 126.568C55.9118 126.184 55.4265 125.645 55.0638 124.952C54.7118 124.248 54.5358 123.443 54.5358 122.536ZM61.5118 122.568C61.5118 122.024 61.4051 121.56 61.1918 121.176C60.9785 120.781 60.6905 120.483 60.3278 120.28C59.9651 120.067 59.5758 119.96 59.1598 119.96C58.7438 119.96 58.3598 120.061 58.0078 120.264C57.6558 120.467 57.3678 120.765 57.1438 121.16C56.9305 121.544 56.8238 122.003 56.8238 122.536C56.8238 123.069 56.9305 123.539 57.1438 123.944C57.3678 124.339 57.6558 124.643 58.0078 124.856C58.3705 125.069 58.7545 125.176 59.1598 125.176C59.5758 125.176 59.9651 125.075 60.3278 124.872C60.6905 124.659 60.9785 124.36 61.1918 123.976C61.4051 123.581 61.5118 123.112 61.5118 122.568ZM73.0046 122.536C73.0046 121.64 73.1806 120.845 73.5326 120.152C73.8952 119.459 74.3806 118.925 74.9886 118.552C75.6072 118.179 76.2952 117.992 77.0526 117.992C77.7139 117.992 78.2899 118.125 78.7806 118.392C79.2819 118.659 79.6819 118.995 79.9806 119.4V118.136H82.2366V127H79.9806V125.704C79.6926 126.12 79.2926 126.467 78.7806 126.744C78.2792 127.011 77.6979 127.144 77.0366 127.144C76.2899 127.144 75.6072 126.952 74.9886 126.568C74.3806 126.184 73.8952 125.645 73.5326 124.952C73.1806 124.248 73.0046 123.443 73.0046 122.536ZM79.9806 122.568C79.9806 122.024 79.8739 121.56 79.6606 121.176C79.4472 120.781 79.1592 120.483 78.7966 120.28C78.4339 120.067 78.0446 119.96 77.6286 119.96C77.2126 119.96 76.8286 120.061 76.4766 120.264C76.1246 120.467 75.8366 120.765 75.6126 121.16C75.3992 121.544 75.2926 122.003 75.2926 122.536C75.2926 123.069 75.3992 123.539 75.6126 123.944C75.8366 124.339 76.1246 124.643 76.4766 124.856C76.8392 125.069 77.2232 125.176 77.6286 125.176C78.0446 125.176 78.4339 125.075 78.7966 124.872C79.1592 124.659 79.4472 124.36 79.6606 123.976C79.8739 123.581 79.9806 123.112 79.9806 122.568ZM88.1203 124.936L90.3603 118.136H92.7443L89.4643 127H86.7443L83.4803 118.136H85.8803L88.1203 124.936ZM93.4264 122.536C93.4264 121.64 93.6024 120.845 93.9544 120.152C94.3171 119.459 94.8024 118.925 95.4104 118.552C96.0291 118.179 96.7171 117.992 97.4744 117.992C98.1358 117.992 98.7118 118.125 99.2024 118.392C99.7038 118.659 100.104 118.995 100.402 119.4V118.136H102.658V127H100.402V125.704C100.114 126.12 99.7144 126.467 99.2024 126.744C98.7011 127.011 98.1198 127.144 97.4584 127.144C96.7118 127.144 96.0291 126.952 95.4104 126.568C94.8024 126.184 94.3171 125.645 93.9544 124.952C93.6024 124.248 93.4264 123.443 93.4264 122.536ZM100.402 122.568C100.402 122.024 100.296 121.56 100.082 121.176C99.8691 120.781 99.5811 120.483 99.2184 120.28C98.8558 120.067 98.4664 119.96 98.0504 119.96C97.6344 119.96 97.2504 120.061 96.8984 120.264C96.5464 120.467 96.2584 120.765 96.0344 121.16C95.8211 121.544 95.7144 122.003 95.7144 122.536C95.7144 123.069 95.8211 123.539 96.0344 123.944C96.2584 124.339 96.5464 124.643 96.8984 124.856C97.2611 125.069 97.6451 125.176 98.0504 125.176C98.4664 125.176 98.8558 125.075 99.2184 124.872C99.5811 124.659 99.8691 124.36 100.082 123.976C100.296 123.581 100.402 123.112 100.402 122.568ZM105.982 117.08C105.588 117.08 105.257 116.957 104.99 116.712C104.734 116.456 104.606 116.141 104.606 115.768C104.606 115.395 104.734 115.085 104.99 114.84C105.257 114.584 105.588 114.456 105.982 114.456C106.377 114.456 106.702 114.584 106.958 114.84C107.225 115.085 107.358 115.395 107.358 115.768C107.358 116.141 107.225 116.456 106.958 116.712C106.702 116.957 106.377 117.08 105.982 117.08ZM107.086 118.136V127H104.846V118.136H107.086ZM111.539 115.16V127H109.299V115.16H111.539ZM113.176 122.536C113.176 121.64 113.352 120.845 113.704 120.152C114.067 119.459 114.552 118.925 115.16 118.552C115.779 118.179 116.467 117.992 117.224 117.992C117.886 117.992 118.462 118.125 118.952 118.392C119.454 118.659 119.854 118.995 120.152 119.4V118.136H122.408V127H120.152V125.704C119.864 126.12 119.464 126.467 118.952 126.744C118.451 127.011 117.87 127.144 117.208 127.144C116.462 127.144 115.779 126.952 115.16 126.568C114.552 126.184 114.067 125.645 113.704 124.952C113.352 124.248 113.176 123.443 113.176 122.536ZM120.152 122.568C120.152 122.024 120.046 121.56 119.832 121.176C119.619 120.781 119.331 120.483 118.968 120.28C118.606 120.067 118.216 119.96 117.8 119.96C117.384 119.96 117 120.061 116.648 120.264C116.296 120.467 116.008 120.765 115.784 121.16C115.571 121.544 115.464 122.003 115.464 122.536C115.464 123.069 115.571 123.539 115.784 123.944C116.008 124.339 116.296 124.643 116.648 124.856C117.011 125.069 117.395 125.176 117.8 125.176C118.216 125.176 118.606 125.075 118.968 124.872C119.331 124.659 119.619 124.36 119.832 123.976C120.046 123.581 120.152 123.112 120.152 122.568ZM126.836 119.432C127.124 119.005 127.519 118.659 128.02 118.392C128.532 118.125 129.114 117.992 129.764 117.992C130.522 117.992 131.204 118.179 131.812 118.552C132.431 118.925 132.916 119.459 133.268 120.152C133.631 120.835 133.812 121.629 133.812 122.536C133.812 123.443 133.631 124.248 133.268 124.952C132.916 125.645 132.431 126.184 131.812 126.568C131.204 126.952 130.522 127.144 129.764 127.144C129.103 127.144 128.522 127.016 128.02 126.76C127.53 126.493 127.135 126.152 126.836 125.736V127H124.596V115.16H126.836V119.432ZM131.524 122.536C131.524 122.003 131.412 121.544 131.188 121.16C130.975 120.765 130.687 120.467 130.324 120.264C129.972 120.061 129.588 119.96 129.172 119.96C128.767 119.96 128.383 120.067 128.02 120.28C127.668 120.483 127.38 120.781 127.156 121.176C126.943 121.571 126.836 122.035 126.836 122.568C126.836 123.101 126.943 123.565 127.156 123.96C127.38 124.355 127.668 124.659 128.02 124.872C128.383 125.075 128.767 125.176 129.172 125.176C129.588 125.176 129.972 125.069 130.324 124.856C130.687 124.643 130.975 124.339 131.188 123.944C131.412 123.549 131.524 123.08 131.524 122.536ZM137.68 115.16V127H135.44V115.16H137.68ZM148.133 122.376C148.133 122.696 148.112 122.984 148.069 123.24H141.589C141.642 123.88 141.866 124.381 142.261 124.744C142.656 125.107 143.141 125.288 143.717 125.288C144.549 125.288 145.141 124.931 145.493 124.216H147.909C147.653 125.069 147.162 125.773 146.437 126.328C145.712 126.872 144.821 127.144 143.765 127.144C142.912 127.144 142.144 126.957 141.461 126.584C140.789 126.2 140.261 125.661 139.877 124.968C139.504 124.275 139.317 123.475 139.317 122.568C139.317 121.651 139.504 120.845 139.877 120.152C140.25 119.459 140.773 118.925 141.445 118.552C142.117 118.179 142.89 117.992 143.765 117.992C144.608 117.992 145.36 118.173 146.021 118.536C146.693 118.899 147.21 119.416 147.573 120.088C147.946 120.749 148.133 121.512 148.133 122.376ZM145.813 121.736C145.802 121.16 145.594 120.701 145.189 120.36C144.784 120.008 144.288 119.832 143.701 119.832C143.146 119.832 142.677 120.003 142.293 120.344C141.92 120.675 141.69 121.139 141.605 121.736H145.813Z" fill="#0B2253"/>
<g clip-path="url(#clip0_4328_14451)">
<path d="M120.315 36.2277H62.9492L117.612 93.7621L124.882 41.9424C125.544 39.0138 123.318 36.2277 120.315 36.2277Z" fill="#00AD94"/>
<path d="M102.892 7.23694H48.7905C45.4588 7.23694 42.7578 9.93788 42.7578 13.2697V83.9955H108.925V13.2697C108.925 9.93768 106.224 7.23694 102.892 7.23694Z" fill="#EFEDEE"/>
<path d="M108.926 34.7765H50.2227V61.3371H108.926V34.7765Z" fill="#D4D2D3"/>
<path d="M107.183 47.6397C106.463 44.4525 103.631 42.1895 100.363 42.1895H55.3608L54.4483 38.1536C54.0019 36.1788 52.247 34.7765 50.2223 34.7765H28.3345C25.556 34.7765 23.4958 37.3545 24.1085 40.0643L35.0858 88.616C35.7662 91.6254 38.4401 93.7622 41.5253 93.7622H117.612L107.183 47.6397Z" fill="#3AC7B4"/>
<path d="M62.5114 24.0514C61.6694 24.0514 60.9873 23.3691 60.9873 22.5273V20.115C60.9873 19.2733 61.6694 18.5909 62.5114 18.5909C63.3533 18.5909 64.0354 19.2733 64.0354 20.115V22.5273C64.0356 23.3691 63.3531 24.0514 62.5114 24.0514Z" fill="#3A484A"/>
<path d="M89.1705 24.0508C88.3286 24.0508 87.6465 23.3685 87.6465 22.5267V20.1144C87.6465 19.2727 88.3286 18.5903 89.1705 18.5903C90.0125 18.5903 90.6946 19.2727 90.6946 20.1144V22.5267C90.6946 23.3685 90.0125 24.0508 89.1705 24.0508Z" fill="#3A484A"/>
<path d="M75.841 25.8338C73.8257 25.8338 71.9339 24.9921 70.6511 23.5245C70.097 22.8906 70.1617 21.9278 70.7955 21.3739C71.4289 20.82 72.392 20.8845 72.9459 21.5183C73.6501 22.3237 74.7049 22.7855 75.8408 22.7855C76.9764 22.7855 78.0312 22.3235 78.7354 21.5183C79.2891 20.8845 80.2522 20.8198 80.886 21.3741C81.5196 21.928 81.5845 22.8908 81.0302 23.5246C79.7476 24.9921 77.856 25.8338 75.841 25.8338Z" fill="#3A484A"/>
</g>
<defs>
<clipPath id="clip0_4328_14451">
<rect width="100.999" height="100.999" fill="white" transform="translate(24)"/>
</clipPath>
</defs>
</svg>
